<svg width="27" height="28" viewBox="0 0 27 28" fill="none" xmlns="http://www.w3.org/2000/svg">
<path d="M13.6282 3.89648C12.4147 3.89648 11.4219 4.88934 11.4219 6.10283C11.4219 7.31633 12.4147 8.30918 13.6282 8.30918C14.8417 8.30918 15.8346 7.31633 15.8346 6.10283C15.8346 4.88934 14.8417 3.89648 13.6282 3.89648ZM13.6282 19.3409C12.4147 19.3409 11.4219 20.3338 11.4219 21.5473C11.4219 22.7608 12.4147 23.7536 13.6282 23.7536C14.8417 23.7536 15.8346 22.7608 15.8346 21.5473C15.8346 20.3338 14.8417 19.3409 13.6282 19.3409ZM13.6282 11.6187C12.4147 11.6187 11.4219 12.6116 11.4219 13.8251C11.4219 15.0385 12.4147 16.0314 13.6282 16.0314C14.8417 16.0314 15.8346 15.0385 15.8346 13.8251C15.8346 12.6116 14.8417 11.6187 13.6282 11.6187Z" fill="white" fill-opacity="0.6"/>
</svg>
