<svg width="706" height="152" viewBox="0 0 706 152" fill="none" xmlns="http://www.w3.org/2000/svg">
<path fill-rule="evenodd" clip-rule="evenodd" d="M41.4789 88.617C50.1532 88.029 59.5658 86.9206 65.6712 80.7309C72.2526 74.0587 73.1579 63.8714 71.6329 54.6244C69.2801 40.358 73.5324 25.1901 84.39 14.1827C102.238 -3.91115 131.174 -3.91117 149.022 14.1827C166.869 32.2765 166.869 61.6125 149.022 79.7063C137.773 91.1101 122.12 95.3266 107.614 92.3558C98.4061 90.47 88.0665 91.1763 81.4661 97.8679C75.7411 103.672 74.7057 112.448 74.545 120.598C74.3906 128.427 71.3669 136.209 65.4739 142.183C53.3708 154.453 33.7477 154.453 21.6446 142.183C9.54151 129.913 9.5415 110.019 21.6446 97.7492C27.1668 92.1508 34.2544 89.1067 41.4789 88.617ZM46.6175 62.8133C36.0093 73.5679 18.81 73.5679 8.20187 62.8133C-2.40632 52.0587 -2.40632 34.6221 8.20187 23.8675C18.8101 13.1129 36.0093 13.1129 46.6175 23.8675C57.2257 34.6221 57.2257 52.0587 46.6175 62.8133ZM123.052 139.85C116.197 146.799 105.083 146.799 98.2288 139.85C91.3741 132.901 91.3741 121.634 98.2288 114.684C105.083 107.735 116.197 107.735 123.052 114.684C129.906 121.634 129.906 132.901 123.052 139.85Z" fill="white"/>
<path d="M705.754 138.047C705.754 139.105 704.896 139.963 703.838 139.963H690.162C689.104 139.963 688.246 139.105 688.246 138.047V16.035C688.246 14.9771 689.104 14.1194 690.162 14.1194H703.838C704.896 14.1194 705.754 14.977 705.754 16.035V138.047Z" fill="white"/>
<path d="M662.552 139.963C661.758 139.963 661.047 139.474 660.763 138.733L648.225 106.049C647.941 105.308 647.23 104.819 646.437 104.819H594.108C593.309 104.819 592.594 105.315 592.314 106.064L580.114 138.718C579.834 139.467 579.119 139.963 578.319 139.963H564.075C562.725 139.963 561.798 138.604 562.291 137.348L610.16 15.3354C610.448 14.6019 611.156 14.1194 611.943 14.1194H629.115C629.903 14.1194 630.61 14.6019 630.898 15.3354L678.767 137.348C679.26 138.604 678.334 139.963 676.984 139.963H662.552ZM621.896 36.9535C621.267 35.305 618.933 35.3113 618.313 36.9632L599.879 86.0783C599.409 87.3307 600.334 88.667 601.672 88.667H638.845C640.187 88.667 641.113 87.3225 640.635 86.0685L621.896 36.9535Z" fill="white"/>
<path d="M466.569 97.0169C466.569 114.589 475.498 127.546 491.255 127.546C506.312 127.546 515.591 114.234 515.591 96.6619C515.591 79.09 506.487 67.0204 491.43 67.0204C476.373 67.0204 466.569 79.445 466.569 97.0169ZM515.766 128.433V128.433C515.766 128.083 515.275 127.963 515.103 128.268C510.806 135.892 502.132 142.278 489.679 142.278C464.993 142.278 449.761 122.399 449.761 97.0169C449.761 72.8777 465.869 52.2883 489.679 52.2883C498.762 52.2883 505.301 55.0651 509.655 58.803C511.252 60.1741 515.416 58.9297 515.416 56.8248V13.3802C515.416 12.3223 516.273 11.4646 517.331 11.4646H529.782C530.84 11.4646 531.698 12.3223 531.698 13.3802V124.174C531.698 129.859 531.698 135.286 531.698 138.058C531.698 139.116 530.84 139.971 529.782 139.971H517.682C516.624 139.971 515.766 139.114 515.766 138.056C515.766 135.771 515.766 131.831 515.766 128.433Z" fill="white"/>
<path d="M437.843 138.052C437.843 139.11 436.986 139.968 435.928 139.968H423.477C422.419 139.968 421.561 139.11 421.561 138.052V56.5087C421.561 55.4507 422.419 54.5931 423.477 54.5931H435.928C436.986 54.5931 437.843 55.4507 437.843 56.5087V138.052ZM417.885 22.2891C417.885 15.5443 423.137 10.2195 429.615 10.2195C436.268 10.2195 441.52 15.5443 441.52 22.2891C441.52 28.8564 436.268 34.1812 429.615 34.1812C423.137 34.1812 417.885 28.8564 417.885 22.2891Z" fill="white"/>
<path d="M386.965 137.61C386.965 135.599 383.593 134.543 382.074 135.86C376.76 140.467 369.246 142.634 362.104 142.634C342.495 142.634 330.59 127.724 330.59 108.377V56.5121C330.59 55.4541 331.448 54.5964 332.505 54.5964H345.132C346.19 54.5964 347.047 55.4541 347.047 56.5121V105.892C347.047 117.607 352.3 127.902 366.131 127.902C379.437 127.902 386.09 119.027 386.09 106.07V56.5121C386.09 55.4541 386.947 54.5964 388.005 54.5964H400.631C401.689 54.5964 402.547 55.4541 402.547 56.5121V124.174C402.547 129.012 402.547 135.036 402.547 138.056C402.547 139.114 401.689 139.971 400.631 139.971H388.881C387.823 139.971 386.965 139.115 386.965 138.057C386.965 137.914 386.965 137.764 386.965 137.61Z" fill="white"/>
<path d="M313.425 138.055C313.425 139.113 312.567 139.971 311.509 139.971H298.883C297.825 139.971 296.967 139.113 296.967 138.055V13.3803C296.967 12.3223 297.825 11.4646 298.883 11.4646H311.509C312.567 11.4646 313.425 12.3223 313.425 13.3802V138.055Z" fill="white"/>
<path d="M227.678 138.047C227.678 139.105 226.821 139.963 225.763 139.963H212.436C211.378 139.963 210.521 139.105 210.521 138.047V16.035C210.521 14.9771 211.378 14.1194 212.436 14.1194H284.064C285.122 14.1194 285.979 14.9771 285.979 16.035V28.3557C285.979 29.4137 285.122 30.2714 284.064 30.2714H229.594C228.536 30.2714 227.678 31.129 227.678 32.187V68.8245C227.678 69.8824 228.536 70.7401 229.594 70.7401H278.636C279.694 70.7401 280.552 71.5978 280.552 72.6558V85.1539C280.552 86.2119 279.694 87.0696 278.636 87.0696H229.594C228.536 87.0696 227.678 87.9273 227.678 88.9852V138.047Z" fill="white"/>
</svg>
