<svg width="196" height="48" viewBox="0 0 196 48" fill="none" xmlns="http://www.w3.org/2000/svg">
<path d="M181.79 33.7871C109.454 -5.5114 42.4542 13.5061 13 30.4318" stroke="white" stroke-width="1.0161" stroke-dasharray="6.1 6.1"/>
<path d="M125 13.5203C75.9251 4.5895 34.3545 18.1239 12.8857 30.4977" stroke="white" stroke-width="1.0161"/>
<g clip-path="url(#clip0_314_5506)">
<path d="M123.29 14.4368L117.991 20.5726L116.362 20.2853L119.604 13.7865L115.239 13.0166L113.438 15.3504L112.217 15.1349L113.698 11.4189L113.55 7.41566L114.771 7.63112L115.684 10.4437L120.049 11.2136L119.176 3.98902L120.805 4.2763L123.734 11.8637L128.17 12.6461C128.494 12.7033 128.781 12.8936 128.969 13.1753C129.156 13.457 129.228 13.8069 129.169 14.1481C129.11 14.4893 128.925 14.7939 128.654 14.9947C128.384 15.1956 128.05 15.2764 127.726 15.2192L123.29 14.4368Z" fill="white"/>
</g>
<path fill-rule="evenodd" clip-rule="evenodd" d="M8.14616 43.7093C12.4084 43.7093 15.8636 40.0072 15.8636 35.4406C15.8636 30.8739 12.4084 27.1719 8.14616 27.1719C3.88393 27.1719 0.428711 30.8739 0.428711 35.4406C0.428711 40.0072 3.88393 43.7093 8.14616 43.7093ZM5.28755 37.6324L10.0807 34.9789L9.18132 38.3393L10.058 38.6087L11.3622 33.7358L6.54026 32.2544L6.30314 33.1404L9.62841 34.162L4.83529 36.8155L5.28755 37.6324Z" fill="white"/>
<path fill-rule="evenodd" clip-rule="evenodd" d="M177.401 40.3C179.597 44.3041 184.607 45.7405 188.591 43.5084C192.575 41.2763 194.024 36.2209 191.829 32.2168C189.633 28.2127 184.623 26.7763 180.639 29.0084C176.655 31.2405 175.205 36.2959 177.401 40.3ZM180.999 34.177L185.714 37.1233L182.328 37.9189L182.531 38.8134L187.441 37.6596L186.325 32.7403L185.432 32.95L186.202 36.3425L181.487 33.3962L180.999 34.177Z" fill="white"/>
<defs>
<clipPath id="clip0_314_5506">
<rect width="20.9474" height="19.8449" rx="9.92244" transform="matrix(-0.170149 0.985418 -0.984796 -0.173717 132.036 4.01953)" fill="white"/>
</clipPath>
</defs>
</svg>
